<svg width="148" height="148" viewBox="0 0 148 148" fill="none" xmlns="http://www.w3.org/2000/svg">
<g filter="url(#filter0_d_2002_562)">
<circle cx="74" cy="59" r="30" fill="#FBFBFB"/>
</g>
<path fill-rule="evenodd" clip-rule="evenodd" d="M69.0312 50.8437C69.0312 49.3933 69.6074 48.0023 70.633 46.9768C71.6586 45.9512 73.0496 45.375 74.5 45.375C75.9504 45.375 77.3414 45.9512 78.367 46.9768C79.3926 48.0023 79.9688 49.3933 79.9688 50.8437C79.9688 52.2942 79.3926 53.6852 78.367 54.7107C77.3414 55.7363 75.9504 56.3125 74.5 56.3125C73.0496 56.3125 71.6586 55.7363 70.633 54.7107C69.6074 53.6852 69.0312 52.2942 69.0312 50.8437ZM79.9688 55.2187C79.9688 54.0584 80.4297 52.9456 81.2502 52.1252C82.0706 51.3047 83.1834 50.8437 84.3438 50.8437C85.5041 50.8437 86.6169 51.3047 87.4373 52.1252C88.2578 52.9456 88.7188 54.0584 88.7188 55.2187C88.7188 56.3791 88.2578 57.4919 87.4373 58.3123C86.6169 59.1328 85.5041 59.5938 84.3438 59.5938C83.1834 59.5938 82.0706 59.1328 81.2502 58.3123C80.4297 57.4919 79.9688 56.3791 79.9688 55.2187ZM60.2812 55.2187C60.2812 54.0584 60.7422 52.9456 61.5627 52.1252C62.3831 51.3047 63.4959 50.8437 64.6562 50.8437C65.8166 50.8437 66.9294 51.3047 67.7498 52.1252C68.5703 52.9456 69.0312 54.0584 69.0312 55.2187C69.0312 56.3791 68.5703 57.4919 67.7498 58.3123C66.9294 59.1328 65.8166 59.5938 64.6562 59.5938C63.4959 59.5938 62.3831 59.1328 61.5627 58.3123C60.7422 57.4919 60.2812 56.3791 60.2812 55.2187ZM66.2021 63.0456C67.0916 61.6515 68.3182 60.5041 69.7686 59.7096C71.219 58.9151 72.8463 58.4991 74.5 58.5C75.8852 58.4987 77.255 58.79 78.5197 59.3548C79.7845 59.9196 80.9158 60.7452 81.8394 61.7774C82.763 62.8097 83.4582 64.0254 83.8795 65.3449C84.3008 66.6644 84.4386 68.0581 84.284 69.4346C84.2651 69.6056 84.2061 69.7697 84.1118 69.9137C84.0175 70.0576 83.8907 70.1772 83.7415 70.2629C80.9291 71.8766 77.7424 72.7235 74.5 72.7188C71.1385 72.7188 67.9813 71.8263 65.2585 70.2629C65.1093 70.1772 64.9825 70.0576 64.8882 69.9137C64.7939 69.7697 64.7349 69.6056 64.716 69.4346C64.4711 67.1984 64.9953 64.9455 66.2021 63.0471V63.0456Z" fill="#A51535"/>
<path d="M64.4112 61.7871C62.973 64.0073 62.3029 66.638 62.5037 69.2757C61.628 69.1429 60.7667 68.928 59.9312 68.634L59.7635 68.5757C59.6139 68.5225 59.4829 68.4272 59.3863 68.3011C59.2898 68.1751 59.2319 68.0237 59.2196 67.8654L59.205 67.689C59.1461 66.9568 59.2353 66.2203 59.4672 65.5234C59.6992 64.8265 60.0691 64.1835 60.555 63.6326C61.0409 63.0818 61.6328 62.6345 62.2953 62.3174C62.9579 62.0004 63.6775 61.82 64.4112 61.7871ZM86.4962 69.2757C86.6971 66.638 86.027 64.0073 84.5887 61.7871C85.3225 61.82 86.0421 62.0004 86.7047 62.3174C87.3672 62.6345 87.9591 63.0818 88.445 63.6326C88.9309 64.1835 89.3008 64.8265 89.5328 65.5234C89.7647 66.2203 89.8539 66.9568 89.795 67.689L89.7804 67.8654C89.7679 68.0235 89.7098 68.1745 89.6133 68.3003C89.5167 68.4261 89.3859 68.5212 89.2365 68.5742L89.0687 68.6325C88.2419 68.9242 87.3829 69.1415 86.4962 69.2757Z" fill="#A51535"/>
<defs>
<filter id="filter0_d_2002_562" x="0" y="0" width="148" height="148" filterUnits="userSpaceOnUse" color-interpolation-filters="sRGB">
<feFlood flood-opacity="0" result="BackgroundImageFix"/>
<feColorMatrix in="SourceAlpha" type="matrix" values="0 0 0 0 0 0 0 0 0 0 0 0 0 0 0 0 0 0 127 0" result="hardAlpha"/>
<feOffset dy="15"/>
<feGaussianBlur stdDeviation="22"/>
<feColorMatrix type="matrix" values="0 0 0 0 0.0509804 0 0 0 0 0.0588235 0 0 0 0 0.109804 0 0 0 0.12 0"/>
<feBlend mode="normal" in2="BackgroundImageFix" result="effect1_dropShadow_2002_562"/>
<feBlend mode="normal" in="SourceGraphic" in2="effect1_dropShadow_2002_562" result="shape"/>
</filter>
</defs>
</svg>
