<svg width="127" height="40" viewBox="0 0 127 40" fill="none" xmlns="http://www.w3.org/2000/svg">
<path fill-rule="evenodd" clip-rule="evenodd" d="M40.4 0H0V40H40.4V0ZM16.1811 8.22794C17.1348 7.23124 18.4605 6.66667 19.8472 6.66667H29.8732C30.2481 6.66667 30.4358 7.11548 30.1707 7.37796L24.7271 12.7677C23.8194 13.6664 22.6 14.1892 21.317 14.2296L10.1 14.5833L16.1811 8.22794ZM15.6729 27.2323C16.5806 26.3335 17.7999 25.8108 19.083 25.7704L30.3 25.4167L24.2189 31.7721C23.2652 32.7688 21.9395 33.3333 20.5528 33.3333H10.5268C10.1519 33.3333 9.96412 32.8845 10.2292 32.622L15.6729 27.2323ZM17.17 16.25H23.23V23.75H17.17V16.25ZM16.16 15.25L10.1 14.9167V16.3986C10.1 17.1003 10.3979 17.7697 10.9208 18.2433L16.8333 23.75L16.16 15.25ZM23.5667 16.25L29.4791 21.7567C30.0021 22.2303 30.3 22.8997 30.3 23.6014V25.0833L24.24 24.75L23.5667 16.25Z" fill="#A51535"/>
<path d="M16.1811 8.22802C17.1348 7.23132 18.4604 6.66675 19.8471 6.66675H29.8731C30.2481 6.66675 30.4358 7.11556 30.1707 7.37804L24.7271 12.7678C23.8194 13.6665 22.6 14.1893 21.3169 14.2297L10.1 14.5834L16.1811 8.22802Z" fill="white"/>
<path d="M15.6729 27.2324C16.5806 26.3336 17.7999 25.8109 19.083 25.7704L30.3 25.4167L24.2189 31.7721C23.2652 32.7688 21.9395 33.3334 20.5528 33.3334H10.5268C10.1519 33.3334 9.96411 32.8846 10.2292 32.6221L15.6729 27.2324Z" fill="white"/>
<path d="M23.23 16.2501H17.17V23.7501H23.23V16.2501Z" fill="white"/>
<path d="M16.16 15.2501L10.1 14.9167V16.3987C10.1 17.1004 10.3978 17.7698 10.9208 18.2434L16.8333 23.7501L16.16 15.2501Z" fill="white"/>
<path d="M29.4791 21.7567L23.5666 16.2501L24.24 24.7501L30.3 25.0834V23.6015C30.3 22.8998 30.0021 22.2303 29.4791 21.7567Z" fill="white"/>
<path d="M52.7893 17.57C51.6716 17.57 50.6952 17.3967 49.8603 17.05C49.0388 16.69 48.3992 16.1833 47.9413 15.53C47.4969 14.8633 47.2747 14.0967 47.2747 13.23V12.85C47.2747 12.7833 47.2949 12.73 47.3353 12.69C47.3892 12.6367 47.4498 12.61 47.5171 12.61H50.3249C50.3922 12.61 50.4461 12.6367 50.4865 12.69C50.5404 12.73 50.5673 12.7833 50.5673 12.85V13.09C50.5673 13.53 50.7895 13.9167 51.2339 14.25C51.6783 14.57 52.2776 14.73 53.0317 14.73C53.6242 14.73 54.0619 14.6033 54.3447 14.35C54.6275 14.0967 54.7689 13.8033 54.7689 13.47C54.7689 13.2033 54.6814 12.99 54.5063 12.83C54.3447 12.6567 54.1225 12.5167 53.8397 12.41C53.5569 12.29 53.1192 12.13 52.5267 11.93C52.4459 11.89 52.3651 11.8633 52.2843 11.85C52.2035 11.8233 52.1294 11.7967 52.0621 11.77C51.1868 11.49 50.4259 11.19 49.7795 10.87C49.1331 10.5367 48.581 10.0833 48.1231 9.51C47.6652 8.92333 47.4363 8.20333 47.4363 7.35C47.4363 6.52333 47.6518 5.80333 48.0827 5.19C48.5271 4.56333 49.1398 4.08333 49.9209 3.75C50.702 3.41667 51.584 3.25 52.5671 3.25C53.604 3.25 54.5332 3.43667 55.3547 3.81C56.1896 4.18333 56.8428 4.71 57.3141 5.39C57.7854 6.07 58.0211 6.85 58.0211 7.73V8.01C58.0211 8.07667 57.9942 8.13667 57.9403 8.19C57.8999 8.23 57.846 8.25 57.7787 8.25H54.9709C54.9036 8.25 54.843 8.23 54.7891 8.19C54.7487 8.13667 54.7285 8.07667 54.7285 8.01V7.87C54.7285 7.40333 54.5198 6.99 54.1023 6.63C53.6848 6.27 53.126 6.09 52.4257 6.09C51.9005 6.09 51.4898 6.19667 51.1935 6.41C50.8972 6.62333 50.7491 6.92333 50.7491 7.31C50.7491 7.60333 50.8434 7.85 51.0319 8.05C51.2204 8.23667 51.51 8.41667 51.9005 8.59C52.3045 8.75 52.9172 8.96333 53.7387 9.23C54.6814 9.55 55.4153 9.83 55.9405 10.07C56.4657 10.31 56.9572 10.7033 57.4151 11.25C57.8864 11.7833 58.1221 12.49 58.1221 13.37C58.1221 14.2367 57.8999 14.9833 57.4555 15.61C57.0111 16.2367 56.3849 16.7233 55.5769 17.07C54.7824 17.4033 53.8532 17.57 52.7893 17.57Z" fill="#353535"/>
<path d="M69.3189 17.41C69.1708 17.41 69.0765 17.3433 69.0361 17.21L68.5109 15.43C68.484 15.3767 68.4503 15.35 68.4099 15.35H63.8043C63.7639 15.35 63.7303 15.3767 63.7033 15.43L63.1781 17.21C63.1377 17.3433 63.0435 17.41 62.8953 17.41H59.8047C59.7239 17.41 59.6633 17.39 59.6229 17.35C59.5825 17.2967 59.5758 17.2233 59.6027 17.13L63.9255 3.61C63.9659 3.47667 64.0535 3.41 64.1881 3.41H68.0059C68.1406 3.41 68.2281 3.47667 68.2685 3.61L72.6115 17.13C72.625 17.1567 72.6317 17.19 72.6317 17.23C72.6317 17.35 72.5577 17.41 72.4095 17.41H69.3189ZM64.5113 12.67C64.4979 12.75 64.5248 12.79 64.5921 12.79H67.6019C67.6827 12.79 67.7097 12.75 67.6827 12.67L66.1475 7.53C66.1341 7.47667 66.1139 7.45667 66.0869 7.47C66.06 7.47 66.0398 7.49 66.0263 7.53L64.5113 12.67Z" fill="#353535"/>
<path d="M79.1283 17.57C78.051 17.57 77.1016 17.3567 76.2801 16.93C75.4721 16.5033 74.8392 15.9033 74.3813 15.13C73.9369 14.3567 73.7147 13.4633 73.7147 12.45V8.35C73.7147 7.33667 73.9369 6.45 74.3813 5.69C74.8392 4.91667 75.4721 4.31667 76.2801 3.89C77.1016 3.46333 78.051 3.25 79.1283 3.25C80.1922 3.25 81.1348 3.45667 81.9563 3.87C82.7778 4.27 83.4107 4.82333 83.8551 5.53C84.313 6.23667 84.5419 7.01667 84.5419 7.87V7.97C84.5419 8.03667 84.5149 8.09667 84.4611 8.15C84.4207 8.19 84.3668 8.21 84.2995 8.21H81.4311C81.3638 8.21 81.3032 8.19 81.2493 8.15C81.2089 8.09667 81.1887 8.03667 81.1887 7.97C81.1887 7.45 81.0002 7.01 80.6231 6.65C80.2595 6.27667 79.7612 6.09 79.1283 6.09C78.5088 6.09 78.0106 6.29 77.6335 6.69C77.2564 7.09 77.0679 7.61 77.0679 8.25V12.55C77.0679 13.19 77.2766 13.71 77.6941 14.11C78.1116 14.51 78.6368 14.71 79.2697 14.71C79.8622 14.71 80.3403 14.5567 80.7039 14.25C81.0675 13.93 81.2493 13.49 81.2493 12.93V12.37C81.2493 12.3033 81.2156 12.27 81.1483 12.27H79.1283C79.061 12.27 79.0004 12.25 78.9465 12.21C78.9061 12.1567 78.8859 12.0967 78.8859 12.03V9.83C78.8859 9.76333 78.9061 9.71 78.9465 9.67C79.0004 9.61667 79.061 9.59 79.1283 9.59H84.2995C84.3668 9.59 84.4207 9.61667 84.4611 9.67C84.5149 9.71 84.5419 9.76333 84.5419 9.83V12.55C84.5419 13.55 84.313 14.43 83.8551 15.19C83.4107 15.95 82.7778 16.5367 81.9563 16.95C81.1483 17.3633 80.2056 17.57 79.1283 17.57Z" fill="#353535"/>
<path d="M95.4395 17.41C95.2914 17.41 95.1971 17.3433 95.1567 17.21L94.6315 15.43C94.6046 15.3767 94.5709 15.35 94.5305 15.35H89.9249C89.8845 15.35 89.8508 15.3767 89.8239 15.43L89.2987 17.21C89.2583 17.3433 89.164 17.41 89.0159 17.41H85.9253C85.8445 17.41 85.7839 17.39 85.7435 17.35C85.7031 17.2967 85.6964 17.2233 85.7233 17.13L90.0461 3.61C90.0865 3.47667 90.174 3.41 90.3087 3.41H94.1265C94.2612 3.41 94.3487 3.47667 94.3891 3.61L98.7321 17.13C98.7456 17.1567 98.7523 17.19 98.7523 17.23C98.7523 17.35 98.6782 17.41 98.5301 17.41H95.4395ZM90.6319 12.67C90.6184 12.75 90.6454 12.79 90.7127 12.79H93.7225C93.8033 12.79 93.8302 12.75 93.8033 12.67L92.2681 7.53C92.2546 7.47667 92.2344 7.45667 92.2075 7.47C92.1806 7.47 92.1604 7.49 92.1469 7.53L90.6319 12.67Z" fill="#353535"/>
<path d="M108.145 17.41C108.011 17.41 107.916 17.35 107.863 17.23L105.479 11.91C105.452 11.8567 105.412 11.83 105.358 11.83H104.025C103.957 11.83 103.924 11.8633 103.924 11.93V17.17C103.924 17.2367 103.897 17.2967 103.843 17.35C103.802 17.39 103.748 17.41 103.681 17.41H100.813C100.745 17.41 100.685 17.39 100.631 17.35C100.591 17.2967 100.57 17.2367 100.57 17.17V3.65C100.57 3.58333 100.591 3.53 100.631 3.49C100.685 3.43667 100.745 3.41 100.813 3.41H106.812C107.701 3.41 108.482 3.59 109.155 3.95C109.829 4.31 110.347 4.82333 110.711 5.49C111.088 6.14333 111.276 6.89667 111.276 7.75C111.276 8.64333 111.054 9.41667 110.61 10.07C110.165 10.7233 109.546 11.1967 108.751 11.49C108.684 11.5167 108.664 11.5633 108.691 11.63L111.357 17.13C111.384 17.1833 111.398 17.2233 111.398 17.25C111.398 17.3567 111.323 17.41 111.175 17.41H108.145ZM104.025 6.25C103.957 6.25 103.924 6.28333 103.924 6.35V9.19C103.924 9.25667 103.957 9.29 104.025 9.29H106.267C106.765 9.29 107.169 9.15667 107.479 8.89C107.788 8.61 107.943 8.24333 107.943 7.79C107.943 7.32333 107.788 6.95 107.479 6.67C107.169 6.39 106.765 6.25 106.267 6.25H104.025Z" fill="#353535"/>
<path d="M122.685 17.41C122.536 17.41 122.442 17.3433 122.402 17.21L121.877 15.43C121.85 15.3767 121.816 15.35 121.776 15.35H117.17C117.13 15.35 117.096 15.3767 117.069 15.43L116.544 17.21C116.503 17.3433 116.409 17.41 116.261 17.41H113.17C113.09 17.41 113.029 17.39 112.989 17.35C112.948 17.2967 112.941 17.2233 112.968 17.13L117.291 3.61C117.332 3.47667 117.419 3.41 117.554 3.41H121.372C121.506 3.41 121.594 3.47667 121.634 3.61L125.977 17.13C125.991 17.1567 125.997 17.19 125.997 17.23C125.997 17.35 125.923 17.41 125.775 17.41H122.685ZM117.877 12.67C117.863 12.75 117.89 12.79 117.958 12.79H120.967C121.048 12.79 121.075 12.75 121.048 12.67L119.513 7.53C119.5 7.47667 119.479 7.45667 119.452 7.47C119.426 7.47 119.405 7.49 119.392 7.53L117.877 12.67Z" fill="#353535"/>
<path d="M57.8797 22.5767C57.947 22.5767 58.0009 22.6033 58.0413 22.6567C58.0952 22.6967 58.1221 22.75 58.1221 22.8167V25.1967C58.1221 25.2633 58.0952 25.3233 58.0413 25.3767C58.0009 25.4167 57.947 25.4367 57.8797 25.4367H54.3447C54.2774 25.4367 54.2437 25.47 54.2437 25.5367V36.3367C54.2437 36.4033 54.2168 36.4633 54.1629 36.5167C54.1225 36.5567 54.0686 36.5767 54.0013 36.5767H51.1329C51.0656 36.5767 51.005 36.5567 50.9511 36.5167C50.9107 36.4633 50.8905 36.4033 50.8905 36.3367V25.5367C50.8905 25.47 50.8568 25.4367 50.7895 25.4367H47.3757C47.3084 25.4367 47.2478 25.4167 47.1939 25.3767C47.1535 25.3233 47.1333 25.2633 47.1333 25.1967V22.8167C47.1333 22.75 47.1535 22.6967 47.1939 22.6567C47.2478 22.6033 47.3084 22.5767 47.3757 22.5767H57.8797Z" fill="#353535"/>
<path d="M70.9594 25.1767C70.9594 25.2433 70.9325 25.3033 70.8786 25.3567C70.8382 25.3967 70.7843 25.4167 70.717 25.4167H64.3742C64.3069 25.4167 64.2732 25.45 64.2732 25.5167V27.9767C64.2732 28.0433 64.3069 28.0767 64.3742 28.0767H68.4344C68.5017 28.0767 68.5556 28.1033 68.596 28.1567C68.6499 28.1967 68.6768 28.25 68.6768 28.3167V30.6567C68.6768 30.7233 68.6499 30.7833 68.596 30.8367C68.5556 30.8767 68.5017 30.8967 68.4344 30.8967H64.3742C64.3069 30.8967 64.2732 30.93 64.2732 30.9967V33.6367C64.2732 33.7033 64.3069 33.7367 64.3742 33.7367H70.717C70.7843 33.7367 70.8382 33.7633 70.8786 33.8167C70.9325 33.8567 70.9594 33.91 70.9594 33.9767V36.3367C70.9594 36.4033 70.9325 36.4633 70.8786 36.5167C70.8382 36.5567 70.7843 36.5767 70.717 36.5767H61.1624C61.0951 36.5767 61.0345 36.5567 60.9806 36.5167C60.9402 36.4633 60.92 36.4033 60.92 36.3367V22.8167C60.92 22.75 60.9402 22.6967 60.9806 22.6567C61.0345 22.6033 61.0951 22.5767 61.1624 22.5767H70.717C70.7843 22.5767 70.8382 22.6033 70.8786 22.6567C70.9325 22.6967 70.9594 22.75 70.9594 22.8167V25.1767Z" fill="#353535"/>
<path d="M79.1165 36.7367C78.0391 36.7367 77.0897 36.53 76.2683 36.1167C75.4603 35.7033 74.8273 35.1167 74.3695 34.3567C73.9251 33.5967 73.7029 32.7167 73.7029 31.7167V27.3967C73.7029 26.41 73.9251 25.5433 74.3695 24.7967C74.8273 24.0367 75.4603 23.45 76.2683 23.0367C77.0897 22.6233 78.0391 22.4167 79.1165 22.4167C80.1938 22.4167 81.1365 22.6167 81.9445 23.0167C82.7659 23.4033 83.3988 23.9567 83.8433 24.6767C84.3011 25.3833 84.53 26.2033 84.53 27.1367C84.53 27.2033 84.5031 27.2567 84.4492 27.2967C84.4088 27.3367 84.355 27.3567 84.2876 27.3567L81.4193 27.5367C81.2577 27.5367 81.1769 27.4633 81.1769 27.3167C81.1769 26.69 80.9883 26.19 80.6113 25.8167C80.2342 25.4433 79.7359 25.2567 79.1165 25.2567C78.497 25.2567 77.9987 25.45 77.6217 25.8367C77.2446 26.21 77.0561 26.7033 77.0561 27.3167V31.8567C77.0561 32.47 77.2446 32.9633 77.6217 33.3367C77.9987 33.71 78.497 33.8967 79.1165 33.8967C79.7359 33.8967 80.2342 33.71 80.6113 33.3367C80.9883 32.9633 81.1769 32.47 81.1769 31.8567C81.1769 31.71 81.2577 31.6367 81.4193 31.6367L84.2876 31.7767C84.355 31.7767 84.4088 31.7967 84.4492 31.8367C84.5031 31.8767 84.53 31.9233 84.53 31.9767C84.53 32.9233 84.3011 33.7567 83.8433 34.4767C83.3988 35.1967 82.7659 35.7567 81.9445 36.1567C81.1365 36.5433 80.1938 36.7367 79.1165 36.7367Z" fill="#353535"/>
<path d="M94.9137 22.8167C94.9137 22.75 94.9339 22.6967 94.9743 22.6567C95.0281 22.6033 95.0887 22.5767 95.1561 22.5767H98.0245C98.0918 22.5767 98.1457 22.6033 98.1861 22.6567C98.2399 22.6967 98.2669 22.75 98.2669 22.8167V36.3367C98.2669 36.4033 98.2399 36.4633 98.1861 36.5167C98.1457 36.5567 98.0918 36.5767 98.0245 36.5767H95.1561C95.0887 36.5767 95.0281 36.5567 94.9743 36.5167C94.9339 36.4633 94.9137 36.4033 94.9137 36.3367V31.0167C94.9137 30.95 94.88 30.9167 94.8127 30.9167H91.0353C90.968 30.9167 90.9343 30.95 90.9343 31.0167V36.3367C90.9343 36.4033 90.9073 36.4633 90.8535 36.5167C90.8131 36.5567 90.7592 36.5767 90.6919 36.5767H87.8235C87.7562 36.5767 87.6956 36.5567 87.6417 36.5167C87.6013 36.4633 87.5811 36.4033 87.5811 36.3367V22.8167C87.5811 22.75 87.6013 22.6967 87.6417 22.6567C87.6956 22.6033 87.7562 22.5767 87.8235 22.5767H90.6919C90.7592 22.5767 90.8131 22.6033 90.8535 22.6567C90.9073 22.6967 90.9343 22.75 90.9343 22.8167V27.9767C90.9343 28.0433 90.968 28.0767 91.0353 28.0767H94.8127C94.88 28.0767 94.9137 28.0433 94.9137 27.9767V22.8167Z" fill="#353535"/>
<path d="M100.663 33.5C100.663 33.3619 100.776 33.25 100.916 33.25H103.777C103.917 33.25 104.03 33.3619 104.03 33.5V36.3333C104.03 36.4714 103.917 36.5833 103.777 36.5833H100.916C100.776 36.5833 100.663 36.4714 100.663 36.3333V33.5Z" fill="#A51535"/>
</svg>
