<svg width="60" height="61" viewBox="0 0 60 61" fill="none" xmlns="http://www.w3.org/2000/svg">
<rect y="0.5" width="60" height="60" rx="12" fill="#F6E8EB"/>
<g filter="url(#filter0_f_2002_442)">
<path d="M16 22.5C16 16.9772 20.4772 12.5 26 12.5H33C38.5228 12.5 43 16.9772 43 22.5V31.5C43 37.0228 38.5228 41.5 33 41.5H29.5H26C20.4772 41.5 16 37.0228 16 31.5V22.5Z" fill="#FF9838" fill-opacity="0.25"/>
</g>
<g filter="url(#filter1_f_2002_442)">
<path d="M21 41.5C21 37.0817 24.5817 33.5 29 33.5H32C36.4183 33.5 40 37.0817 40 41.5C40 45.9183 36.4183 49.5 32 49.5H30.5H29C24.5817 49.5 21 45.9183 21 41.5Z" fill="#FF4755" fill-opacity="0.25"/>
</g>
<g clip-path="url(#clip0_2002_442)">
<path d="M36.9552 36.7509L37.6844 36.9219L40.0518 43.7236C40.1272 43.9402 39.9517 44.1617 39.7235 44.1378L36.4051 43.7903C36.3124 43.7806 36.2202 43.8127 36.1536 43.8779L33.7682 46.2106C33.6042 46.371 33.329 46.3064 33.2536 46.0897L30.8707 39.2437L31.2155 38.7384L36.9552 36.7509Z" fill="#FF4755"/>
<path d="M30.8709 39.2436L30.3894 37.8603L37.2045 35.5427L37.6846 36.9219C35.7494 38.3028 33.4061 39.1481 30.8709 39.2436Z" fill="#FC2B3A"/>
<path d="M23.8337 36.7509L23.1045 36.9219L20.7371 43.7236C20.6617 43.9402 20.8372 44.1617 21.0654 44.1378L24.3838 43.7903C24.4765 43.7806 24.5686 43.8127 24.6352 43.8779L27.0207 46.2106C27.1847 46.371 27.4599 46.3064 27.5352 46.0897L29.9181 39.2437L29.5733 38.7384L23.8337 36.7509Z" fill="#FF4755"/>
<path d="M29.9185 39.2436L30.4 37.8603L23.5849 35.5427L23.1049 36.9219C25.04 38.3028 27.3833 39.1481 29.9185 39.2436Z" fill="#FC2B3A"/>
<path d="M30.3983 37.0725C19.2321 37.0725 19.2228 26.3033 19.2321 26.1167C19.5256 20.2039 24.4126 15.5 30.3983 15.5C36.3839 15.5 41.271 20.2039 41.5645 26.1167C41.5737 26.3033 41.5784 37.0725 30.3983 37.0725Z" fill="#FFCB5B"/>
<path d="M30.3999 36.7332C24.4142 36.7332 19.5274 32.0293 19.2338 26.1166C19.2245 26.3032 19.2197 26.4911 19.2197 26.6801C19.2197 32.8547 24.2253 37.8602 30.3999 37.8602C36.5745 37.8602 41.58 32.8547 41.58 26.6801C41.58 26.4911 41.5752 26.3032 41.566 26.1166C41.2724 32.0293 36.3856 36.7332 30.3999 36.7332Z" fill="#F7B737"/>
<path d="M30.3998 34.7517C21.6099 34.7517 21.5981 26.303 21.6099 26.1166C21.9005 21.5149 25.7248 17.8726 30.3998 17.8726C35.0747 17.8726 38.8991 21.5149 39.1896 26.1166C39.2014 26.303 39.2074 34.7517 30.3998 34.7517Z" fill="#FF9838"/>
<path d="M30.3996 34.3606C25.7247 34.3606 21.9011 30.7182 21.6105 26.1166C21.5987 26.3029 21.592 26.4907 21.592 26.6801C21.592 31.5444 25.5353 35.4877 30.3996 35.4877C35.2639 35.4877 39.2072 31.5444 39.2072 26.6801C39.2072 26.4907 39.2006 26.3029 39.1888 26.1166C38.8982 30.7182 35.0746 34.3606 30.3996 34.3606Z" fill="#FF8709"/>
<path d="M31.206 22.3898L32.0274 24.0542C32.1584 24.3195 32.4116 24.5035 32.7044 24.546L34.5412 24.8129C35.2787 24.9201 35.5732 25.8264 35.0395 26.3466L33.7104 27.6421C33.4985 27.8487 33.4018 28.1463 33.4518 28.438L33.7656 30.2673C33.7954 30.4408 33.718 30.749 33.718 30.749H32.461L30.3997 29.5901L28.3385 30.749L27.0918 30.774C27.0918 30.774 27.0023 30.4509 27.0339 30.2673L27.3476 28.4379C27.3977 28.1462 27.301 27.8486 27.089 27.6421L25.7599 26.3465C25.2263 25.8264 25.5208 24.9201 26.2583 24.8129L28.095 24.5459C28.3879 24.5034 28.6411 24.3195 28.772 24.0541L29.5935 22.3897C29.9232 21.7215 30.8762 21.7215 31.206 22.3898Z" fill="#FFF5F5"/>
<path d="M30.254 29.0812L27.0819 30.749C27.2664 31.2158 27.8346 31.4802 28.3385 31.2154L29.9813 30.3516C30.2432 30.2139 30.5562 30.2139 30.8181 30.3516L32.461 31.2154C32.9648 31.4802 33.5331 31.2158 33.7176 30.749L30.5455 29.0812C30.4541 29.0333 30.3452 29.0333 30.254 29.0812Z" fill="#EFE2DD"/>
</g>
<defs>
<filter id="filter0_f_2002_442" x="6" y="2.5" width="47" height="49" filterUnits="userSpaceOnUse" color-interpolation-filters="sRGB">
<feFlood flood-opacity="0" result="BackgroundImageFix"/>
<feBlend mode="normal" in="SourceGraphic" in2="BackgroundImageFix" result="shape"/>
<feGaussianBlur stdDeviation="5" result="effect1_foregroundBlur_2002_442"/>
</filter>
<filter id="filter1_f_2002_442" x="11" y="23.5" width="39" height="36" filterUnits="userSpaceOnUse" color-interpolation-filters="sRGB">
<feFlood flood-opacity="0" result="BackgroundImageFix"/>
<feBlend mode="normal" in="SourceGraphic" in2="BackgroundImageFix" result="shape"/>
<feGaussianBlur stdDeviation="5" result="effect1_foregroundBlur_2002_442"/>
</filter>
<clipPath id="clip0_2002_442">
<rect width="30.8" height="30.8" fill="white" transform="translate(15 15.5)"/>
</clipPath>
</defs>
</svg>
