<svg width="60" height="61" viewBox="0 0 60 61" fill="none" xmlns="http://www.w3.org/2000/svg">
<g clip-path="url(#clip0_2002_419)">
<rect y="0.5" width="60" height="60" rx="12" fill="#F6E8EB"/>
<g filter="url(#filter0_f_2002_419)">
<rect x="16" y="25.5" width="27" height="27" rx="10" fill="#7D89FF" fill-opacity="0.2"/>
</g>
<g clip-path="url(#clip1_2002_419)">
<path d="M21.2 40.1774C18.7814 40.1774 16.8132 42.2039 16.8132 44.6227V45.5H23.8321L25.4982 43.6868C25.0905 41.6868 23.3185 40.1774 21.2 40.1774Z" fill="#FF5E70"/>
<path d="M21.2 40.1773C19.2646 40.1773 17.6906 38.6033 17.6906 36.6679C17.6906 34.7322 19.2646 33.1584 21.2 33.1584C23.1357 33.1584 24.7094 34.7322 24.7094 36.6679C24.7094 38.6033 23.1357 40.1773 21.2 40.1773Z" fill="#FF5E70"/>
<path d="M38.7472 40.1774C36.6289 40.1774 34.8569 41.6868 34.4492 43.6868L36.1152 45.5H43.1341V44.6227C43.1341 42.2039 41.166 40.1774 38.7472 40.1774Z" fill="#FF3651"/>
<path d="M38.7472 40.1773C36.8118 40.1773 35.2378 38.6033 35.2378 36.6679C35.2378 34.7322 36.8118 33.1584 38.7472 33.1584C40.6829 33.1584 42.2567 34.7322 42.2567 36.6679C42.2567 38.6033 40.6829 40.1773 38.7472 40.1773Z" fill="#FF3651"/>
<path d="M35.308 19.4365L31.6233 18.8925L29.9737 15.5L28.3242 18.8925L24.6394 19.4365L27.3066 22.0334L26.6749 25.6834L29.9737 23.9638L33.2726 25.6834L32.6409 22.0334L35.308 19.4365Z" fill="#FDBF00"/>
<path d="M42.7425 31.6573L39.4489 29.9267L36.1571 31.6573L36.7861 27.991L34.123 25.3951L37.803 24.8604L39.4491 21.5249L41.095 24.8604L44.9473 25.3951L42.1119 27.991L42.7425 31.6573Z" fill="#FF9100"/>
<path d="M23.7902 31.6573L20.4984 29.9267L17.2048 31.6573L17.8354 27.991L15 25.3951L18.8523 24.8604L20.4982 21.5249L22.1443 24.8604L25.8243 25.3951L23.1612 27.991L23.7902 31.6573Z" fill="#FDBF00"/>
<path d="M29.9737 27.8942C27.5521 27.8942 25.5869 29.8596 25.5869 32.2811C25.5869 34.7025 27.5521 36.6679 29.9737 36.6679C32.3952 36.6679 34.3604 34.7025 34.3604 32.2811C34.3604 29.8596 32.3952 27.8942 29.9737 27.8942Z" fill="#7D89FF"/>
<path d="M29.9736 36.668C26.5871 36.668 23.832 39.4228 23.832 42.8096V45.5001H36.1152V42.8096C36.1152 39.4228 33.3602 36.668 29.9736 36.668Z" fill="#7D89FF"/>
<path d="M29.9736 36.6679V27.8942C32.3952 27.8942 34.3604 29.8596 34.3604 32.2811C34.3604 34.7025 32.3952 36.6679 29.9736 36.6679Z" fill="#6B78F7"/>
<path d="M33.2725 25.6834L29.9736 23.9636V15.5L31.6232 18.8925L35.308 19.4365L32.6408 22.0334L33.2725 25.6834Z" fill="#FF9100"/>
<path d="M36.1152 42.8096V45.5001H29.9736V36.668C33.3602 36.668 36.1152 39.4228 36.1152 42.8096Z" fill="#6B78F7"/>
</g>
</g>
<defs>
<filter id="filter0_f_2002_419" x="6" y="15.5" width="47" height="47" filterUnits="userSpaceOnUse" color-interpolation-filters="sRGB">
<feFlood flood-opacity="0" result="BackgroundImageFix"/>
<feBlend mode="normal" in="SourceGraphic" in2="BackgroundImageFix" result="shape"/>
<feGaussianBlur stdDeviation="5" result="effect1_foregroundBlur_2002_419"/>
</filter>
<clipPath id="clip0_2002_419">
<rect y="0.5" width="60" height="60" rx="12" fill="white"/>
</clipPath>
<clipPath id="clip1_2002_419">
<rect width="30" height="30" fill="white" transform="translate(15 15.5)"/>
</clipPath>
</defs>
</svg>
