<svg width="60" height="61" viewBox="0 0 60 61" fill="none" xmlns="http://www.w3.org/2000/svg">
<g clip-path="url(#clip0_2002_405)">
<rect y="0.5" width="60" height="60" rx="12" fill="#F6E8EB"/>
<g filter="url(#filter0_f_2002_405)">
<rect x="16" y="25.5" width="27" height="27" rx="10" fill="#00AA63" fill-opacity="0.25"/>
</g>
<g clip-path="url(#clip1_2002_405)">
<path d="M41.483 35.5338C40.6767 37.7192 39.4572 39.6193 37.858 41.181C36.0377 42.9585 33.6541 44.3709 30.7734 45.3785C30.6789 45.4114 30.5802 45.4384 30.4811 45.4584C30.3502 45.4842 30.217 45.4982 30.0849 45.5H30.0591C29.9183 45.5 29.7768 45.4858 29.6365 45.4584C29.5374 45.4384 29.4402 45.4114 29.3461 45.3792C26.4619 44.3732 24.0754 42.9615 22.2533 41.184C20.6534 39.6223 19.4341 37.7233 18.6289 35.5379C17.1648 31.5645 17.2481 27.1874 17.3151 23.6699L17.3163 23.6159C17.3298 23.3255 17.3385 23.0204 17.3433 22.6834C17.3678 21.0293 18.6829 19.6608 20.3373 19.5686C23.7865 19.3761 26.4548 18.2511 28.7347 16.0289L28.7547 16.0106C29.1332 15.6634 29.6102 15.4931 30.0849 15.5002C30.5427 15.5062 30.9986 15.6762 31.3637 16.0106L31.3831 16.0289C33.6635 18.2511 36.3318 19.3761 39.781 19.5686C41.4354 19.6608 42.7506 21.0293 42.7751 22.6834C42.7799 23.0226 42.7886 23.3273 42.8021 23.6159L42.8027 23.6388C42.8696 27.1629 42.9524 31.5487 41.483 35.5338Z" fill="#00DD80"/>
<path d="M41.4829 35.5338C40.6766 37.7192 39.4571 39.6194 37.8579 41.181C36.0376 42.9585 33.654 44.371 30.7733 45.3785C30.6788 45.4115 30.5801 45.4385 30.481 45.4584C30.3501 45.4842 30.2169 45.4982 30.0848 45.5V15.5002C30.5426 15.5062 30.9985 15.6763 31.3636 16.0107L31.3831 16.029C33.6634 18.2512 36.3317 19.3761 39.781 19.5686C41.4353 19.6609 42.7505 21.0293 42.775 22.6835C42.7798 23.0227 42.7885 23.3273 42.802 23.6159L42.8027 23.6388C42.8695 27.1629 42.9524 31.5488 41.4829 35.5338Z" fill="#00AA63"/>
<path d="M37.5351 30.5C37.5351 34.6137 34.195 37.9622 30.0848 37.9769H30.0584C25.936 37.9769 22.5815 34.6226 22.5815 30.5C22.5815 26.3776 25.936 23.0233 30.0584 23.0233H30.0848C34.195 23.038 37.5351 26.3865 37.5351 30.5Z" fill="white"/>
<path d="M37.5352 30.5C37.5352 34.6137 34.1951 37.9622 30.0848 37.9769V23.0233C34.1951 23.038 37.5352 26.3865 37.5352 30.5Z" fill="#E1EBF0"/>
<path d="M33.4521 29.4233L30.0848 32.7911L29.3571 33.5187C29.1852 33.6906 28.9598 33.7764 28.7346 33.7764C28.5091 33.7764 28.2839 33.6906 28.1118 33.5187L26.5474 31.9536C26.2036 31.6098 26.2036 31.053 26.5474 30.7089C26.8907 30.3652 27.4483 30.3652 27.792 30.7089L28.7346 31.6515L32.2074 28.1787C32.5512 27.8347 33.1087 27.8347 33.4521 28.1787C33.7958 28.5224 33.7958 29.08 33.4521 29.4233Z" fill="#B4D2D7"/>
<path d="M33.4521 29.4233L30.0848 32.7911V30.3011L32.2075 28.1787C32.5513 27.8347 33.1088 27.8347 33.4521 28.1787C33.7959 28.5224 33.7959 29.08 33.4521 29.4233Z" fill="#6FA5AA"/>
</g>
</g>
<defs>
<filter id="filter0_f_2002_405" x="6" y="15.5" width="47" height="47" filterUnits="userSpaceOnUse" color-interpolation-filters="sRGB">
<feFlood flood-opacity="0" result="BackgroundImageFix"/>
<feBlend mode="normal" in="SourceGraphic" in2="BackgroundImageFix" result="shape"/>
<feGaussianBlur stdDeviation="5" result="effect1_foregroundBlur_2002_405"/>
</filter>
<clipPath id="clip0_2002_405">
<rect y="0.5" width="60" height="60" rx="12" fill="white"/>
</clipPath>
<clipPath id="clip1_2002_405">
<rect width="30" height="30" fill="white" transform="translate(15 15.5)"/>
</clipPath>
</defs>
</svg>
