<svg width="148" height="148" viewBox="0 0 148 148" fill="none" xmlns="http://www.w3.org/2000/svg">
<g filter="url(#filter0_d_2002_613)">
<circle cx="74" cy="59" r="30" fill="#FBFBFB"/>
</g>
<path d="M74.0625 48.0906C74.2005 48.0304 74.3494 47.9993 74.5 47.9993C74.6506 47.9993 74.7995 48.0304 74.9375 48.0906C80.3305 50.4479 85.4747 53.3376 90.2937 56.7167C90.4636 56.8358 90.596 57.0007 90.6757 57.1922C90.7553 57.3838 90.7788 57.594 90.7435 57.7984C90.7082 58.0028 90.6155 58.1929 90.4762 58.3466C90.3369 58.5003 90.1568 58.6113 89.9569 58.6665C84.9539 60.0482 80.1129 61.9608 75.5165 64.3715L75.5121 64.3744C75.3458 64.4619 75.181 64.5479 75.0162 64.6369C74.8576 64.7217 74.6806 64.766 74.5007 64.766C74.3209 64.766 74.1438 64.7217 73.9852 64.6369C72.0138 63.5848 69.9958 62.6223 67.9375 61.7523V61.4256C67.9375 61.2346 68.0352 61.064 68.1883 60.9721C70.3895 59.6382 72.654 58.4117 74.974 57.2971C75.2354 57.1714 75.4362 56.947 75.5322 56.6732C75.6282 56.3995 75.6115 56.0988 75.4858 55.8373C75.3601 55.5758 75.1357 55.375 74.8619 55.279C74.5882 55.183 74.2875 55.1997 74.026 55.3254C71.6428 56.4706 69.3165 57.7307 67.0552 59.1011C66.7335 59.2962 66.456 59.5562 66.2403 59.8646C66.0246 60.1729 65.8755 60.5228 65.8025 60.8919C63.5876 60.0396 61.3322 59.2965 59.0446 58.665C58.8446 58.6098 58.6645 58.4989 58.5252 58.3452C58.3859 58.1915 58.2932 58.0013 58.2579 57.7969C58.2226 57.5925 58.2461 57.3823 58.3258 57.1908C58.4054 56.9993 58.5379 56.8343 58.7077 56.7152C63.5263 53.3367 68.6701 50.4475 74.0625 48.0906Z" fill="#A51535"/>
<path d="M76.0458 66.5648C79.6278 64.651 83.3682 63.0497 87.2254 61.7785C87.4208 63.8406 87.5462 65.9246 87.5972 68.026C87.6029 68.2463 87.5419 68.4632 87.4222 68.6482C87.3025 68.8332 87.1297 68.9778 86.9264 69.0629C82.7924 70.7894 78.8342 72.9099 75.1066 75.395C74.927 75.5147 74.7159 75.5787 74.4999 75.5787C74.284 75.5787 74.0729 75.5147 73.8933 75.395C70.1661 72.91 66.2084 70.7895 62.0749 69.0629C61.8717 68.9781 61.6987 68.8339 61.5788 68.6491C61.4588 68.4644 61.3974 68.2477 61.4027 68.0275C61.4537 65.9246 61.5791 63.8421 61.7745 61.7771C63.1177 62.2204 64.4433 62.7017 65.7499 63.2208V65.0729C65.4348 65.2544 65.17 65.5117 64.9793 65.8213C64.7886 66.131 64.6782 66.4833 64.6579 66.8464C64.6376 67.2095 64.7082 67.5719 64.8632 67.9008C65.0183 68.2298 65.2528 68.5149 65.5458 68.7304C65.4145 69.2846 65.222 69.8285 64.9668 70.3492C65.626 70.6598 66.2808 70.9821 66.9297 71.3117C67.2955 70.5676 67.5655 69.7801 67.7333 68.9681C68.1021 68.8041 68.4183 68.5413 68.647 68.2088C68.8757 67.8762 69.0079 67.4869 69.029 67.0838C69.0502 66.6808 68.9594 66.2797 68.7667 65.9251C68.5741 65.5704 68.2871 65.276 67.9374 65.0744V64.1337C69.6409 64.8779 71.3145 65.6889 72.9541 66.5648C73.4298 66.8188 73.9607 66.9517 74.4999 66.9517C75.0392 66.9517 75.5701 66.8188 76.0458 66.5648Z" fill="#A51535"/>
<path d="M63.5071 72.3821C64.1196 71.7711 64.6052 71.0842 64.9654 70.3477C65.626 70.6598 66.2808 70.9821 66.9298 71.3131C66.4526 72.2823 65.819 73.1663 65.0543 73.9294C64.847 74.1226 64.5728 74.2278 64.2894 74.2228C64.0061 74.2178 63.7357 74.103 63.5353 73.9026C63.3349 73.7022 63.2201 73.4318 63.2151 73.1485C63.2101 72.8651 63.3153 72.5909 63.5085 72.3836L63.5071 72.3821Z" fill="#A51535"/>
<defs>
<filter id="filter0_d_2002_613" x="0" y="0" width="148" height="148" filterUnits="userSpaceOnUse" color-interpolation-filters="sRGB">
<feFlood flood-opacity="0" result="BackgroundImageFix"/>
<feColorMatrix in="SourceAlpha" type="matrix" values="0 0 0 0 0 0 0 0 0 0 0 0 0 0 0 0 0 0 127 0" result="hardAlpha"/>
<feOffset dy="15"/>
<feGaussianBlur stdDeviation="22"/>
<feColorMatrix type="matrix" values="0 0 0 0 0.0509804 0 0 0 0 0.0588235 0 0 0 0 0.109804 0 0 0 0.12 0"/>
<feBlend mode="normal" in2="BackgroundImageFix" result="effect1_dropShadow_2002_613"/>
<feBlend mode="normal" in="SourceGraphic" in2="effect1_dropShadow_2002_613" result="shape"/>
</filter>
</defs>
</svg>
