<svg width="148" height="148" viewBox="0 0 148 148" fill="none" xmlns="http://www.w3.org/2000/svg">
<g filter="url(#filter0_d_2002_587)">
<circle cx="74" cy="59" r="30" fill="#FBFBFB"/>
</g>
<path d="M63.5625 46.4688C62.4022 46.4688 61.2894 46.9297 60.4689 47.7502C59.6484 48.5706 59.1875 49.6834 59.1875 50.8438V51.9375H89.8125V50.8438C89.8125 49.6834 89.3516 48.5706 88.5311 47.7502C87.7106 46.9297 86.5978 46.4688 85.4375 46.4688H63.5625Z" fill="#A51535"/>
<path fill-rule="evenodd" clip-rule="evenodd" d="M89.8125 55.2188H59.1875V66.1562C59.1875 67.3166 59.6484 68.4294 60.4689 69.2498C61.2894 70.0703 62.4022 70.5312 63.5625 70.5312H85.4375C86.5978 70.5312 87.7106 70.0703 88.5311 69.2498C89.3516 68.4294 89.8125 67.3166 89.8125 66.1562V55.2188ZM63.5625 60.6875C63.5625 60.3974 63.6777 60.1192 63.8829 59.9141C64.088 59.709 64.3662 59.5938 64.6562 59.5938H73.4062C73.6963 59.5938 73.9745 59.709 74.1796 59.9141C74.3848 60.1192 74.5 60.3974 74.5 60.6875C74.5 60.9776 74.3848 61.2558 74.1796 61.4609C73.9745 61.666 73.6963 61.7812 73.4062 61.7812H64.6562C64.3662 61.7812 64.088 61.666 63.8829 61.4609C63.6777 61.2558 63.5625 60.9776 63.5625 60.6875ZM64.6562 63.9688C64.3662 63.9688 64.088 64.084 63.8829 64.2891C63.6777 64.4942 63.5625 64.7724 63.5625 65.0625C63.5625 65.3526 63.6777 65.6308 63.8829 65.8359C64.088 66.041 64.3662 66.1562 64.6562 66.1562H69.0312C69.3213 66.1562 69.5995 66.041 69.8046 65.8359C70.0098 65.6308 70.125 65.3526 70.125 65.0625C70.125 64.7724 70.0098 64.4942 69.8046 64.2891C69.5995 64.084 69.3213 63.9688 69.0312 63.9688H64.6562Z" fill="#A51535"/>
<defs>
<filter id="filter0_d_2002_587" x="0" y="0" width="148" height="148" filterUnits="userSpaceOnUse" color-interpolation-filters="sRGB">
<feFlood flood-opacity="0" result="BackgroundImageFix"/>
<feColorMatrix in="SourceAlpha" type="matrix" values="0 0 0 0 0 0 0 0 0 0 0 0 0 0 0 0 0 0 127 0" result="hardAlpha"/>
<feOffset dy="15"/>
<feGaussianBlur stdDeviation="22"/>
<feColorMatrix type="matrix" values="0 0 0 0 0.0509804 0 0 0 0 0.0588235 0 0 0 0 0.109804 0 0 0 0.12 0"/>
<feBlend mode="normal" in2="BackgroundImageFix" result="effect1_dropShadow_2002_587"/>
<feBlend mode="normal" in="SourceGraphic" in2="effect1_dropShadow_2002_587" result="shape"/>
</filter>
</defs>
</svg>
