<svg width="148" height="148" viewBox="0 0 148 148" fill="none" xmlns="http://www.w3.org/2000/svg">
<g filter="url(#filter0_d_2002_575)">
<circle cx="74" cy="59" r="30" fill="#FBFBFB"/>
</g>
<g clip-path="url(#clip0_2002_575)">
<path fill-rule="evenodd" clip-rule="evenodd" d="M64.8601 43.9993C65.1418 43.8286 65.4797 43.7769 65.7995 43.8554C66.1194 43.9339 66.3949 44.1363 66.5655 44.418L68.4956 47.6042C68.6663 47.8859 68.718 48.2238 68.6395 48.5437C68.561 48.8635 68.3586 49.139 68.0769 49.3097C67.7952 49.4803 67.4573 49.5321 67.1375 49.4535C66.8177 49.375 66.5421 49.1726 66.3715 48.891L64.4414 45.7047C64.2708 45.423 64.219 45.0851 64.2975 44.7653C64.3761 44.4454 64.5784 44.1699 64.8601 43.9993ZM58.1092 53.1913C58.1879 52.8718 58.3901 52.5966 58.6716 52.4261C58.953 52.2556 59.2906 52.2038 59.6103 52.282L63.2295 53.1694C63.5443 53.2527 63.8138 53.4562 63.9799 53.7362C64.146 54.0163 64.1955 54.3503 64.1178 54.6665C64.04 54.9827 63.8411 55.2556 63.564 55.4266C63.2869 55.5976 62.9538 55.6529 62.6363 55.5806L59.0193 54.6938C58.8609 54.655 58.7117 54.5853 58.5802 54.4887C58.4487 54.3922 58.3375 54.2707 58.253 54.1311C58.1684 53.9916 58.1122 53.8368 58.0876 53.6755C58.0629 53.5143 58.0702 53.3497 58.1092 53.1913ZM76.1334 42.273C76.453 42.3516 76.7282 42.5539 76.8987 42.8353C77.0692 43.1168 77.121 43.4544 77.0427 43.774L76.1554 47.3933C76.0721 47.708 75.8685 47.9775 75.5885 48.1437C75.3085 48.3098 74.9744 48.3593 74.6582 48.2815C74.3421 48.2037 74.0691 48.0049 73.8981 47.7278C73.7272 47.4507 73.6718 47.1175 73.7441 46.8001L74.6309 43.1831C74.6698 43.0247 74.7395 42.8754 74.836 42.7439C74.9326 42.6124 75.0541 42.5012 75.1936 42.4167C75.3331 42.3322 75.488 42.276 75.6492 42.2513C75.8105 42.2267 75.975 42.234 76.1334 42.273ZM70.338 54.4867C70.5183 54.2986 70.7533 54.1719 71.0095 54.1247C71.2658 54.0775 71.5305 54.1121 71.766 54.2237L85.9608 60.9503C86.1829 61.0555 86.3688 61.2243 86.4949 61.4352C86.6211 61.6461 86.6818 61.8896 86.6694 62.1351C86.6571 62.3805 86.5721 62.6168 86.4254 62.8139C86.2787 63.0111 86.0768 63.1602 85.8453 63.2426L82.5068 64.4325L87.3321 69.0589C87.57 69.287 87.7074 69.6003 87.7142 69.9298C87.721 70.2593 87.5967 70.578 87.3685 70.8158C87.1404 71.0536 86.8271 71.191 86.4976 71.1979C86.1681 71.2047 85.8494 71.0803 85.6116 70.8522L80.7886 66.2263L79.7395 69.6106C79.667 69.8455 79.5264 70.0536 79.3356 70.2085C79.1447 70.3635 78.9121 70.4583 78.6674 70.4809C78.4226 70.5036 78.1766 70.453 77.9605 70.3358C77.7445 70.2185 77.5681 70.0397 77.4537 69.8221L70.1359 55.9235C70.0143 55.693 69.9683 55.43 70.0044 55.1719C70.0405 54.9138 70.1569 54.6736 70.3371 54.4853L70.338 54.4867ZM59.8355 64.4647C59.6649 64.183 59.6131 63.845 59.6917 63.5252C59.7702 63.2054 59.9725 62.9298 60.2542 62.7592L63.4405 60.8291C63.7222 60.6585 64.0601 60.6067 64.3799 60.6853C64.6997 60.7638 64.9753 60.9661 65.1459 61.2478C65.3166 61.5295 65.3683 61.8674 65.2898 62.1873C65.2112 62.5071 65.0089 62.7826 64.7272 62.9533L61.541 64.8834C61.2593 65.054 60.9213 65.1057 60.6015 65.0272C60.2817 64.9487 60.0061 64.7463 59.8355 64.4647ZM80.0151 52.2407C79.8444 51.959 79.7927 51.6211 79.8712 51.3012C79.9497 50.9814 80.1521 50.7059 80.4338 50.5352L83.62 48.6051C83.9017 48.4345 84.2396 48.3828 84.5595 48.4613C84.8793 48.5398 85.1548 48.7422 85.3255 49.0239C85.4961 49.3055 85.5479 49.6435 85.4693 49.9633C85.3908 50.2831 85.1884 50.5587 84.9068 50.7293L81.7205 52.6594C81.4388 52.83 81.1009 52.8818 80.7811 52.8033C80.4612 52.7247 80.1857 52.5224 80.0151 52.2407ZM70.5081 65.1851C70.6666 65.2239 70.8158 65.2936 70.9473 65.3902C71.0788 65.4867 71.19 65.6082 71.2745 65.7478C71.359 65.8873 71.4152 66.0421 71.4399 66.2034C71.4646 66.3646 71.4572 66.5292 71.4183 66.6876L70.53 70.3054C70.4936 70.4662 70.4255 70.6181 70.3297 70.7523C70.2339 70.8865 70.1123 71.0003 69.9721 71.087C69.8318 71.1738 69.6757 71.2317 69.5129 71.2574C69.35 71.2832 69.1837 71.2762 69.0235 71.237C68.8634 71.1977 68.7126 71.127 68.5801 71.0289C68.4476 70.9308 68.336 70.8072 68.2517 70.6655C68.1674 70.5238 68.1122 70.3667 68.0893 70.2034C68.0664 70.0401 68.0762 69.8739 68.1183 69.7145L69.0056 66.0952C69.0843 65.7757 69.2866 65.5005 69.568 65.33C69.8495 65.1595 70.1871 65.1077 70.5067 65.1859L70.5081 65.1851Z" fill="#A51535"/>
</g>
<defs>
<filter id="filter0_d_2002_575" x="0" y="0" width="148" height="148" filterUnits="userSpaceOnUse" color-interpolation-filters="sRGB">
<feFlood flood-opacity="0" result="BackgroundImageFix"/>
<feColorMatrix in="SourceAlpha" type="matrix" values="0 0 0 0 0 0 0 0 0 0 0 0 0 0 0 0 0 0 127 0" result="hardAlpha"/>
<feOffset dy="15"/>
<feGaussianBlur stdDeviation="22"/>
<feColorMatrix type="matrix" values="0 0 0 0 0.0509804 0 0 0 0 0.0588235 0 0 0 0 0.109804 0 0 0 0.12 0"/>
<feBlend mode="normal" in2="BackgroundImageFix" result="effect1_dropShadow_2002_575"/>
<feBlend mode="normal" in="SourceGraphic" in2="effect1_dropShadow_2002_575" result="shape"/>
</filter>
<clipPath id="clip0_2002_575">
<rect width="39.7359" height="39.7359" fill="white" transform="translate(46.5801 52.1689) rotate(-31.2058)"/>
</clipPath>
</defs>
</svg>
