<svg width="148" height="148" viewBox="0 0 148 148" fill="none" xmlns="http://www.w3.org/2000/svg">
<g filter="url(#filter0_d_2002_601)">
<circle cx="74" cy="59" r="30" fill="#FBFBFB"/>
</g>
<path fill-rule="evenodd" clip-rule="evenodd" d="M67.9404 49.75H78.3354C79.6395 49.7519 80.8896 50.2713 81.811 51.1942C82.7325 52.117 83.25 53.3678 83.25 54.6719V68.3438C84.4103 68.3438 85.5231 67.8828 86.3436 67.0623C87.1641 66.2419 87.625 65.1291 87.625 63.9688V49.9075C87.625 47.7127 85.9844 45.8081 83.74 45.62C83.413 45.5934 83.0859 45.5691 82.7586 45.5471C82.3894 44.8358 81.832 44.2396 81.1472 43.8235C80.4623 43.4074 79.6764 43.1874 78.875 43.1875H76.6875C75.8862 43.1874 75.1002 43.4074 74.4154 43.8235C73.7305 44.2396 73.1731 44.8358 72.804 45.5471C72.4758 45.569 72.1477 45.5938 71.8225 45.62C69.6321 45.8052 68.0163 47.6238 67.9404 49.75ZM76.6875 45.375C76.1074 45.375 75.551 45.6055 75.1407 46.0157C74.7305 46.4259 74.5 46.9823 74.5 47.5625H81.0625C81.0625 46.9823 80.832 46.4259 80.4218 46.0157C80.0116 45.6055 79.4552 45.375 78.875 45.375H76.6875Z" fill="#A51535"/>
<path fill-rule="evenodd" clip-rule="evenodd" d="M61.375 54.6719C61.375 53.161 62.6 51.9375 64.1094 51.9375H78.3281C79.839 51.9375 81.0625 53.1625 81.0625 54.6719V71.0781C81.0625 72.5875 79.8375 73.8125 78.3281 73.8125H64.1094C63.3842 73.8125 62.6887 73.5244 62.1759 73.0116C61.6631 72.4988 61.375 71.8033 61.375 71.0781V54.6719ZM65.75 58.5C65.75 58.2099 65.8652 57.9317 66.0704 57.7266C66.2755 57.5215 66.5537 57.4062 66.8438 57.4062H66.8554C67.1455 57.4062 67.4237 57.5215 67.6288 57.7266C67.8339 57.9317 67.9492 58.2099 67.9492 58.5V58.5117C67.9492 58.8017 67.8339 59.0799 67.6288 59.2851C67.4237 59.4902 67.1455 59.6054 66.8554 59.6054H66.8438C66.5537 59.6054 66.2755 59.4902 66.0704 59.2851C65.8652 59.0799 65.75 58.8017 65.75 58.5117V58.5ZM69.0312 58.5C69.0312 58.2099 69.1465 57.9317 69.3516 57.7266C69.5567 57.5215 69.8349 57.4062 70.125 57.4062H75.5938C75.8838 57.4062 76.162 57.5215 76.3671 57.7266C76.5723 57.9317 76.6875 58.2099 76.6875 58.5C76.6875 58.7901 76.5723 59.0683 76.3671 59.2734C76.162 59.4785 75.8838 59.5938 75.5938 59.5938H70.125C69.8349 59.5938 69.5567 59.4785 69.3516 59.2734C69.1465 59.0683 69.0312 58.7901 69.0312 58.5ZM65.75 62.875C65.75 62.5849 65.8652 62.3067 66.0704 62.1016C66.2755 61.8965 66.5537 61.7812 66.8438 61.7812H66.8554C67.1455 61.7812 67.4237 61.8965 67.6288 62.1016C67.8339 62.3067 67.9492 62.5849 67.9492 62.875V62.8867C67.9492 63.1767 67.8339 63.4549 67.6288 63.6601C67.4237 63.8652 67.1455 63.9804 66.8554 63.9804H66.8438C66.5537 63.9804 66.2755 63.8652 66.0704 63.6601C65.8652 63.4549 65.75 63.1767 65.75 62.8867V62.875ZM69.0312 62.875C69.0312 62.5849 69.1465 62.3067 69.3516 62.1016C69.5567 61.8965 69.8349 61.7812 70.125 61.7812H75.5938C75.8838 61.7812 76.162 61.8965 76.3671 62.1016C76.5723 62.3067 76.6875 62.5849 76.6875 62.875C76.6875 63.1651 76.5723 63.4433 76.3671 63.6484C76.162 63.8535 75.8838 63.9688 75.5938 63.9688H70.125C69.8349 63.9688 69.5567 63.8535 69.3516 63.6484C69.1465 63.4433 69.0312 63.1651 69.0312 62.875ZM65.75 67.25C65.75 66.9599 65.8652 66.6817 66.0704 66.4766C66.2755 66.2715 66.5537 66.1562 66.8438 66.1562H66.8554C67.1455 66.1562 67.4237 66.2715 67.6288 66.4766C67.8339 66.6817 67.9492 66.9599 67.9492 67.25V67.2617C67.9492 67.5517 67.8339 67.8299 67.6288 68.0351C67.4237 68.2402 67.1455 68.3554 66.8554 68.3554H66.8438C66.5537 68.3554 66.2755 68.2402 66.0704 68.0351C65.8652 67.8299 65.75 67.5517 65.75 67.2617V67.25ZM69.0312 67.25C69.0312 66.9599 69.1465 66.6817 69.3516 66.4766C69.5567 66.2715 69.8349 66.1562 70.125 66.1562H75.5938C75.8838 66.1562 76.162 66.2715 76.3671 66.4766C76.5723 66.6817 76.6875 66.9599 76.6875 67.25C76.6875 67.5401 76.5723 67.8183 76.3671 68.0234C76.162 68.2285 75.8838 68.3438 75.5938 68.3438H70.125C69.8349 68.3438 69.5567 68.2285 69.3516 68.0234C69.1465 67.8183 69.0312 67.5401 69.0312 67.25Z" fill="#A51535"/>
<defs>
<filter id="filter0_d_2002_601" x="0" y="0" width="148" height="148" filterUnits="userSpaceOnUse" color-interpolation-filters="sRGB">
<feFlood flood-opacity="0" result="BackgroundImageFix"/>
<feColorMatrix in="SourceAlpha" type="matrix" values="0 0 0 0 0 0 0 0 0 0 0 0 0 0 0 0 0 0 127 0" result="hardAlpha"/>
<feOffset dy="15"/>
<feGaussianBlur stdDeviation="22"/>
<feColorMatrix type="matrix" values="0 0 0 0 0.0509804 0 0 0 0 0.0588235 0 0 0 0 0.109804 0 0 0 0.12 0"/>
<feBlend mode="normal" in2="BackgroundImageFix" result="effect1_dropShadow_2002_601"/>
<feBlend mode="normal" in="SourceGraphic" in2="effect1_dropShadow_2002_601" result="shape"/>
</filter>
</defs>
</svg>
